<svg class="border shadow-md" viewBox="0 0 1351.68 760.32" xmlns="http://www.w3.org/2000/svg" preserveAspectRatio="none" style="width: 1351.68px; height: 760.32px;"><rect class="bg" id="bg" x="0" y="0" width="1351.68" height="760.32" fill="#ffffff"/><line opacity="0.21" x1="0" y1="-26" x2="112" y2="86" stroke-linecap="round" stroke="#3D348B" stroke-width="30"/><line opacity="0.21" x1="0" y1="254.96000000000004" x2="161" y2="415.96000000000004" stroke-linecap="round" stroke="#F18701" stroke-width="16"/><line opacity="0.21" x1="0" y1="584.9200000000001" x2="96.5" y2="681.4200000000001" stroke-linecap="round" stroke="#7678ED" stroke-width="23"/><line opacity="0.21" x1="54.0672" y1="111" x2="119.0672" y2="176" stroke-linecap="round" stroke="#F18701" stroke-width="16"/><line opacity="0.21" x1="54.0672" y1="306" x2="153.0672" y2="405" stroke-linecap="round" stroke="#F7B801" stroke-width="36"/><line opacity="0.21" x1="54.0672" y1="506.376" x2="108.0672" y2="560.376" stroke-linecap="round" stroke="#F18701" stroke-width="16"/><line opacity="0.21" x1="54.0672" y1="661.752" x2="146.0672" y2="753.752" stroke-linecap="round" stroke="#F18701" stroke-width="16"/><line opacity="0.21" x1="54.0672" y1="855.1279999999999" x2="155.0672" y2="956.1279999999999" stroke-linecap="round" stroke="#3D348B" stroke-width="16"/><line opacity="0.21" x1="108.1344" y1="21" x2="213.1344" y2="126" stroke-linecap="round" stroke="#F35B04" stroke-width="16"/><line opacity="0.21" x1="108.1344" y1="294.96000000000004" x2="221.1344" y2="407.96000000000004" stroke-linecap="round" stroke="#F35B04" stroke-width="16"/><line opacity="0.21" x1="108.1344" y1="576.9200000000001" x2="217.6344" y2="686.4200000000001" stroke-linecap="round" stroke="#F35B04" stroke-width="23"/><line opacity="0.21" x1="162.20159999999998" y1="-77" x2="212.88959999999997" y2="-26.311999999999998" stroke-linecap="round" stroke="#7678ED" stroke-width="16"/><line opacity="0.21" x1="162.20159999999998" y1="75.06400000000002" x2="212.88959999999997" y2="125.75200000000002" stroke-linecap="round" stroke="#F18701" stroke-width="16"/><line opacity="0.21" x1="162.20159999999998" y1="227.12800000000004" x2="255.20159999999998" y2="320.12800000000004" stroke-linecap="round" stroke="#F7B801" stroke-width="16"/><line opacity="0.21" x1="162.20159999999998" y1="421.504" x2="212.88959999999997" y2="472.192" stroke-linecap="round" stroke="#F35B04" stroke-width="39"/><line opacity="0.21" x1="162.20159999999998" y1="573.568" x2="224.20159999999998" y2="635.568" stroke-linecap="round" stroke="#3D348B" stroke-width="16"/><line opacity="0.21" x1="216.2688" y1="16" x2="266.7688" y2="66.5" stroke-linecap="round" stroke="#F18701" stroke-width="16"/><line opacity="0.21" x1="216.2688" y1="167.5" x2="279.2688" y2="230.5" stroke-linecap="round" stroke="#F35B04" stroke-width="19"/><line opacity="0.21" x1="216.2688" y1="314.98" x2="258.5088" y2="357.22" stroke-linecap="round" stroke="#F35B04" stroke-width="35"/><line opacity="0.21" x1="216.2688" y1="441.70000000000005" x2="265.2688" y2="490.70000000000005" stroke-linecap="round" stroke="#F35B04" stroke-width="22"/><line opacity="0.21" x1="216.2688" y1="575.1800000000001" x2="258.5088" y2="617.4200000000001" stroke-linecap="round" stroke="#F18701" stroke-width="24"/><line opacity="0.21" x1="216.2688" y1="701.9000000000001" x2="269.2688" y2="754.9000000000001" stroke-linecap="round" stroke="#3D348B" stroke-width="26"/><line opacity="0.21" x1="270.336" y1="16" x2="354.81600000000003" y2="100.48" stroke-linecap="round" stroke="#F18701" stroke-width="16"/><line opacity="0.21" x1="270.336" y1="269.44" x2="376.336" y2="375.44" stroke-linecap="round" stroke="#F7B801" stroke-width="18"/><line opacity="0.21" x1="270.336" y1="544.4000000000001" x2="379.336" y2="653.4000000000001" stroke-linecap="round" stroke="#F35B04" stroke-width="18"/><line opacity="0.21" x1="324.40319999999997" y1="18" x2="408.8832" y2="102.48" stroke-linecap="round" stroke="#7678ED" stroke-width="16"/><line opacity="0.21" x1="324.40319999999997" y1="271.44" x2="434.40319999999997" y2="381.44" stroke-linecap="round" stroke="#F7B801" stroke-width="27"/><line opacity="0.21" x1="324.40319999999997" y1="550.4000000000001" x2="408.8832" y2="634.8800000000001" stroke-linecap="round" stroke="#3D348B" stroke-width="16"/><line opacity="0.21" x1="378.4704" y1="-84" x2="441.8304" y2="-20.639999999999993" stroke-linecap="round" stroke="#F7B801" stroke-width="35"/><line opacity="0.21" x1="378.4704" y1="106.08000000000001" x2="441.8304" y2="169.44000000000003" stroke-linecap="round" stroke="#F7B801" stroke-width="37"/><line opacity="0.21" x1="378.4704" y1="296.16" x2="486.4704" y2="404.16" stroke-linecap="round" stroke="#7678ED" stroke-width="22"/><line opacity="0.21" x1="378.4704" y1="530.8800000000001" x2="465.4704" y2="617.8800000000001" stroke-linecap="round" stroke="#F7B801" stroke-width="30"/><line opacity="0.21" x1="432.5376" y1="106" x2="600.5376" y2="274" stroke-linecap="round" stroke="#3D348B" stroke-width="23"/><line opacity="0.21" x1="432.5376" y1="442.96000000000004" x2="517.0176" y2="527.44" stroke-linecap="round" stroke="#F7B801" stroke-width="16"/><line opacity="0.21" x1="432.5376" y1="696.4000000000001" x2="517.0176" y2="780.8800000000001" stroke-linecap="round" stroke="#F18701" stroke-width="25"/><line opacity="0.21" x1="486.6048" y1="67" x2="571.0848" y2="151.48000000000002" stroke-linecap="round" stroke="#3D348B" stroke-width="22"/><line opacity="0.21" x1="486.6048" y1="320.44" x2="622.6048000000001" y2="456.44" stroke-linecap="round" stroke="#F7B801" stroke-width="38"/><line opacity="0.21" x1="486.6048" y1="625.4000000000001" x2="582.1048000000001" y2="720.9000000000001" stroke-linecap="round" stroke="#7678ED" stroke-width="16"/><line opacity="0.21" x1="540.672" y1="-34" x2="588.672" y2="14" stroke-linecap="round" stroke="#F18701" stroke-width="16"/><line opacity="0.21" x1="540.672" y1="98.48000000000002" x2="586.672" y2="144.48000000000002" stroke-linecap="round" stroke="#F7B801" stroke-width="37"/><line opacity="0.21" x1="540.672" y1="236.48000000000002" x2="608.672" y2="304.48" stroke-linecap="round" stroke="#F18701" stroke-width="22"/><line opacity="0.21" x1="540.672" y1="388.96000000000004" x2="598.672" y2="446.96000000000004" stroke-linecap="round" stroke="#7678ED" stroke-width="16"/><line opacity="0.21" x1="540.672" y1="562.96" x2="582.912" y2="605.2" stroke-linecap="round" stroke="#F7B801" stroke-width="16"/><line opacity="0.21" x1="540.672" y1="689.6800000000001" x2="582.912" y2="731.9200000000001" stroke-linecap="round" stroke="#3D348B" stroke-width="22"/><line opacity="0.21" x1="594.7392" y1="114" x2="766.7392" y2="286" stroke-linecap="round" stroke="#F18701" stroke-width="16"/><line opacity="0.21" x1="594.7392" y1="461" x2="679.2192" y2="545.48" stroke-linecap="round" stroke="#F35B04" stroke-width="16"/><line opacity="0.21" x1="594.7392" y1="714.44" x2="789.7392" y2="909.44" stroke-linecap="round" stroke="#7678ED" stroke-width="16"/><line opacity="0.21" x1="648.8063999999999" y1="121" x2="737.8063999999999" y2="210" stroke-linecap="round" stroke="#F35B04" stroke-width="16"/><line opacity="0.21" x1="648.8063999999999" y1="336.72" x2="712.1664" y2="400.08000000000004" stroke-linecap="round" stroke="#3D348B" stroke-width="30"/><line opacity="0.21" x1="648.8063999999999" y1="526.8000000000001" x2="712.1664" y2="590.1600000000001" stroke-linecap="round" stroke="#F7B801" stroke-width="16"/><line opacity="0.21" x1="648.8063999999999" y1="716.8800000000001" x2="758.8063999999999" y2="826.8800000000001" stroke-linecap="round" stroke="#F35B04" stroke-width="30"/><line opacity="0.21" x1="702.8736" y1="19" x2="739.0793142857143" y2="55.205714285714286" stroke-linecap="round" stroke="#7678ED" stroke-width="16"/><line opacity="0.21" x1="702.8736" y1="127.61714285714285" x2="749.3736" y2="174.11714285714285" stroke-linecap="round" stroke="#F7B801" stroke-width="27"/><line opacity="0.21" x1="702.8736" y1="267.1171428571429" x2="739.0793142857143" y2="303.3228571428572" stroke-linecap="round" stroke="#7678ED" stroke-width="30"/><line opacity="0.21" x1="702.8736" y1="375.73428571428576" x2="739.0793142857143" y2="411.94000000000005" stroke-linecap="round" stroke="#3D348B" stroke-width="35"/><line opacity="0.21" x1="702.8736" y1="484.35142857142864" x2="744.8736" y2="526.3514285714286" stroke-linecap="round" stroke="#F35B04" stroke-width="16"/><line opacity="0.21" x1="702.8736" y1="598.7628571428572" x2="751.8736" y2="647.7628571428572" stroke-linecap="round" stroke="#F35B04" stroke-width="17"/><line opacity="0.21" x1="702.8736" y1="720.1742857142858" x2="739.0793142857143" y2="756.3800000000001" stroke-linecap="round" stroke="#3D348B" stroke-width="16"/><line opacity="0.21" x1="756.9408" y1="-16" x2="807.6288" y2="34.688" stroke-linecap="round" stroke="#F35B04" stroke-width="17"/><line opacity="0.21" x1="756.9408" y1="136.06400000000002" x2="808.9408" y2="188.06400000000002" stroke-linecap="round" stroke="#F35B04" stroke-width="37"/><line opacity="0.21" x1="756.9408" y1="289.44000000000005" x2="825.9408" y2="358.44000000000005" stroke-linecap="round" stroke="#3D348B" stroke-width="16"/><line opacity="0.21" x1="756.9408" y1="459.81600000000003" x2="829.9408" y2="532.816" stroke-linecap="round" stroke="#F18701" stroke-width="16"/><line opacity="0.21" x1="756.9408" y1="678.816" x2="807.6288" y2="729.504" stroke-linecap="round" stroke="#7678ED" stroke-width="33"/><line opacity="0.21" x1="811.008" y1="77" x2="942.008" y2="208" stroke-linecap="round" stroke="#7678ED" stroke-width="29"/><line opacity="0.21" x1="811.008" y1="427" x2="936.008" y2="552" stroke-linecap="round" stroke="#7678ED" stroke-width="16"/><line opacity="0.21" x1="811.008" y1="724" x2="976.008" y2="889" stroke-linecap="round" stroke="#F18701" stroke-width="16"/><line opacity="0.21" x1="865.0752" y1="34" x2="954.0752" y2="123" stroke-linecap="round" stroke="#F18701" stroke-width="24"/><line opacity="0.21" x1="865.0752" y1="224.376" x2="915.7632" y2="275.064" stroke-linecap="round" stroke="#F7B801" stroke-width="16"/><line opacity="0.21" x1="865.0752" y1="376.44000000000005" x2="915.7632" y2="427.12800000000004" stroke-linecap="round" stroke="#7678ED" stroke-width="16"/><line opacity="0.21" x1="865.0752" y1="528.5040000000001" x2="945.0752" y2="608.5040000000001" stroke-linecap="round" stroke="#7678ED" stroke-width="16"/><line opacity="0.21" x1="865.0752" y1="709.8800000000001" x2="915.7632" y2="760.5680000000001" stroke-linecap="round" stroke="#F18701" stroke-width="20"/><line opacity="0.21" x1="919.1424" y1="16" x2="1001.1424" y2="98" stroke-linecap="round" stroke="#F35B04" stroke-width="16"/><line opacity="0.21" x1="919.1424" y1="200" x2="961.3824" y2="242.24" stroke-linecap="round" stroke="#F7B801" stroke-width="37"/><line opacity="0.21" x1="919.1424" y1="326.72" x2="1001.1424" y2="408.72" stroke-linecap="round" stroke="#F18701" stroke-width="16"/><line opacity="0.21" x1="919.1424" y1="493.20000000000005" x2="964.1424" y2="538.2" stroke-linecap="round" stroke="#7678ED" stroke-width="16"/><line opacity="0.21" x1="919.1424" y1="622.6800000000001" x2="972.1424" y2="675.6800000000001" stroke-linecap="round" stroke="#F18701" stroke-width="16"/><line opacity="0.21" x1="919.1424" y1="781.6800000000001" x2="985.1424" y2="847.6800000000001" stroke-linecap="round" stroke="#3D348B" stroke-width="20"/><line opacity="0.21" x1="973.2096" y1="71" x2="1070.2096000000001" y2="168" stroke-linecap="round" stroke="#3D348B" stroke-width="30"/><line opacity="0.21" x1="973.2096" y1="336.96000000000004" x2="1129.2096000000001" y2="492.96000000000004" stroke-linecap="round" stroke="#F7B801" stroke-width="16"/><line opacity="0.21" x1="973.2096" y1="661.9200000000001" x2="1057.6896" y2="746.4000000000001" stroke-linecap="round" stroke="#7678ED" stroke-width="16"/><line opacity="0.21" x1="1027.2768" y1="124" x2="1077.9648000000002" y2="174.688" stroke-linecap="round" stroke="#F18701" stroke-width="16"/><line opacity="0.21" x1="1027.2768" y1="276.064" x2="1107.2768" y2="356.064" stroke-linecap="round" stroke="#F35B04" stroke-width="16"/><line opacity="0.21" x1="1027.2768" y1="457.44000000000005" x2="1081.2768" y2="511.44000000000005" stroke-linecap="round" stroke="#F18701" stroke-width="38"/><line opacity="0.21" x1="1027.2768" y1="612.816" x2="1090.2768" y2="675.816" stroke-linecap="round" stroke="#F7B801" stroke-width="16"/><line opacity="0.21" x1="1027.2768" y1="801.816" x2="1098.2768" y2="872.816" stroke-linecap="round" stroke="#7678ED" stroke-width="16"/><line opacity="0.21" x1="1081.344" y1="-23" x2="1269.344" y2="165" stroke-linecap="round" stroke="#7678ED" stroke-width="29"/><line opacity="0.21" x1="1081.344" y1="401" x2="1165.824" y2="485.48" stroke-linecap="round" stroke="#3D348B" stroke-width="16"/><line opacity="0.21" x1="1081.344" y1="654.44" x2="1239.344" y2="812.44" stroke-linecap="round" stroke="#F7B801" stroke-width="16"/><line opacity="0.21" x1="1135.4112" y1="-54" x2="1187.9112" y2="-1.5" stroke-linecap="round" stroke="#F7B801" stroke-width="35"/><line opacity="0.21" x1="1135.4112" y1="103.5" x2="1188.4112" y2="156.5" stroke-linecap="round" stroke="#7678ED" stroke-width="34"/><line opacity="0.21" x1="1135.4112" y1="240.98000000000002" x2="1177.9112" y2="283.48" stroke-linecap="round" stroke="#F18701" stroke-width="16"/><line opacity="0.21" x1="1135.4112" y1="368.48" x2="1177.6512" y2="410.72" stroke-linecap="round" stroke="#F18701" stroke-width="31"/><line opacity="0.21" x1="1135.4112" y1="495.20000000000005" x2="1177.6512" y2="537.44" stroke-linecap="round" stroke="#F35B04" stroke-width="20"/><line opacity="0.21" x1="1135.4112" y1="621.9200000000001" x2="1208.4112" y2="694.9200000000001" stroke-linecap="round" stroke="#F18701" stroke-width="33"/><line opacity="0.21" x1="1189.4784" y1="16" x2="1312.4784" y2="139" stroke-linecap="round" stroke="#F35B04" stroke-width="20"/><line opacity="0.21" x1="1189.4784" y1="385" x2="1275.4784" y2="471" stroke-linecap="round" stroke="#F18701" stroke-width="36"/><line opacity="0.21" x1="1189.4784" y1="639.96" x2="1273.9584" y2="724.44" stroke-linecap="round" stroke="#F18701" stroke-width="16"/><line opacity="0.21" x1="1243.5456" y1="102" x2="1365.5456" y2="224" stroke-linecap="round" stroke="#F35B04" stroke-width="17"/><line opacity="0.21" x1="1243.5456" y1="356" x2="1294.2336" y2="406.688" stroke-linecap="round" stroke="#7678ED" stroke-width="38"/><line opacity="0.21" x1="1243.5456" y1="508.064" x2="1311.5456" y2="576.0640000000001" stroke-linecap="round" stroke="#F35B04" stroke-width="16"/><line opacity="0.21" x1="1243.5456" y1="712.0640000000001" x2="1333.5456" y2="802.0640000000001" stroke-linecap="round" stroke="#F18701" stroke-width="17"/><line opacity="0.21" x1="1243.5456" y1="903.44" x2="1327.5456" y2="987.44" stroke-linecap="round" stroke="#F35B04" stroke-width="16"/><line opacity="0.21" x1="1297.6127999999999" y1="-91" x2="1359.6127999999999" y2="-29" stroke-linecap="round" stroke="#3D348B" stroke-width="23"/><line opacity="0.21" x1="1297.6127999999999" y1="95" x2="1381.6127999999999" y2="179" stroke-linecap="round" stroke="#7678ED" stroke-width="30"/><line opacity="0.21" x1="1297.6127999999999" y1="264" x2="1339.8528" y2="306.24" stroke-linecap="round" stroke="#F35B04" stroke-width="16"/><line opacity="0.21" x1="1297.6127999999999" y1="390.72" x2="1407.6127999999999" y2="500.72" stroke-linecap="round" stroke="#F35B04" stroke-width="38"/><line opacity="0.21" x1="1297.6127999999999" y1="624.72" x2="1379.6127999999999" y2="706.72" stroke-linecap="round" stroke="#7678ED" stroke-width="30"/><line opacity="0.21" x1="1297.6127999999999" y1="793.72" x2="1339.8528" y2="835.96" stroke-linecap="round" stroke="#3D348B" stroke-width="26"/></svg>